<svg width="120" height="90" viewBox="0 0 120 90" fill="none" xmlns="http://www.w3.org/2000/svg">
<path d="M0 20C0 8.9543 8.95431 0 20 0H100C111.046 0 120 8.95431 120 20V70C120 81.0457 111.046 90 100 90H20C8.95431 90 0 81.0457 0 70V20Z" fill="#C24F4F"/>
<path d="M22.688 63V28.44H28.016L53.36 58.584V28.44H57.248V63H51.92L26.576 32.856V63H22.688Z" fill="#FFEFEF"/>
<path d="M62.7695 63V28.44H90.0815C91.1375 28.44 92.0975 28.696 92.9615 29.208C93.8575 29.72 94.5615 30.424 95.0735 31.32C95.5855 32.184 95.8415 33.144 95.8415 34.2V41.544C95.8415 41.992 95.7775 42.44 95.6495 42.888C95.5535 43.304 95.4095 43.704 95.2175 44.088C95.9215 45.144 96.4495 46.056 96.8015 46.824C97.1535 47.592 97.3295 48.376 97.3295 49.176V57.24C97.3295 58.296 97.0735 59.272 96.5615 60.168C96.0495 61.032 95.3455 61.72 94.4495 62.232C93.5855 62.744 92.6255 63 91.5695 63H62.7695ZM68.5295 59.112H91.5695C92.0815 59.112 92.5135 58.936 92.8655 58.584C93.2495 58.2 93.4415 57.752 93.4415 57.24V49.176C93.4415 48.664 93.2495 48.232 92.8655 47.88C92.5135 47.496 92.0815 47.304 91.5695 47.304H68.5295C68.0175 47.304 67.5695 47.496 67.1855 47.88C66.8335 48.232 66.6575 48.664 66.6575 49.176V57.24C66.6575 57.752 66.8335 58.2 67.1855 58.584C67.5695 58.936 68.0175 59.112 68.5295 59.112ZM68.5295 43.416H90.0815C90.5935 43.416 91.0255 43.24 91.3775 42.888C91.7295 42.504 91.9055 42.056 91.9055 41.544V34.2C91.9055 33.688 91.7295 33.256 91.3775 32.904C91.0255 32.52 90.5935 32.328 90.0815 32.328H68.5295C68.0175 32.328 67.5695 32.52 67.1855 32.904C66.8335 33.256 66.6575 33.688 66.6575 34.2V41.544C66.6575 42.056 66.8335 42.504 67.1855 42.888C67.5695 43.24 68.0175 43.416 68.5295 43.416Z" fill="#FFEFEF"/>
</svg>
